<svg class="eventsapp-icon" xmlns="http://www.w3.org/2000/svg" width="124" height="37" viewBox="-22.5 0 180 54"> <path fill="#A6A6A6" d="M151.097 53.334H-16.195c-3.476 0-6.305-2.838-6.305-6.31V6.3C-22.5 2.827-19.67 0-16.195 0h167.292c3.474 0 6.403 2.827 6.403 6.302v40.722c0 3.472-2.93 6.31-6.403 6.31z"></path> <path d="M156.21 47.023c0 2.822-2.285 5.107-5.112 5.107H-16.195c-2.825 0-5.118-2.285-5.118-5.107V6.3c0-2.82 2.293-5.113 5.118-5.113h167.292c2.828 0 5.11 2.293 5.11 5.113l.003 40.723z"></path> <g fill="#FFF"> <path d="M17.67 26.38c-.038-4.298 3.52-6.39 3.682-6.486-2.015-2.938-5.137-3.34-6.235-3.37-2.623-.277-5.167 1.568-6.502 1.568-1.363 0-3.42-1.542-5.638-1.497-2.854.044-5.522 1.696-6.986 4.26-3.02 5.23-.767 12.92 2.127 17.147 1.448 2.07 3.14 4.383 5.355 4.3 2.167-.09 2.976-1.38 5.59-1.38 2.59 0 3.35 1.38 5.61 1.328 2.325-.037 3.79-2.08 5.186-4.17 1.673-2.37 2.345-4.71 2.372-4.83-.054-.018-4.515-1.72-4.56-6.87zM13.404 13.742c1.165-1.458 1.962-3.44 1.74-5.453-1.685.074-3.794 1.166-5.01 2.592-1.074 1.256-2.034 3.314-1.786 5.25 1.895.14 3.84-.956 5.056-2.39z"></path> </g> <g fill="#FFF"> <path d="M49.026 42.006H46l-1.66-5.213h-5.765l-1.58 5.213h-2.948l5.71-17.744h3.53l5.74 17.744zm-5.186-7.4l-1.5-4.632c-.158-.475-.456-1.59-.895-3.344h-.053c-.175.754-.456 1.87-.843 3.344l-1.474 4.633h4.764zM63.716 35.45c0 2.177-.588 3.896-1.764 5.16-1.054 1.122-2.36 1.685-3.923 1.685-1.687 0-2.897-.605-3.635-1.816h-.053v6.74H51.5V33.42c0-1.367-.036-2.77-.105-4.21h2.5l.16 2.028h.052c.948-1.53 2.387-2.293 4.317-2.293 1.51 0 2.77.598 3.777 1.79 1.012 1.195 1.516 2.765 1.516 4.714zm-2.896.105c0-1.244-.28-2.27-.843-3.08-.615-.842-1.44-1.264-2.475-1.264-.7 0-1.34.235-1.908.698-.57.467-.944 1.076-1.12 1.832-.087.352-.13.64-.13.865v2.135c0 .93.285 1.715.855 2.355s1.31.96 2.223.96c1.07 0 1.904-.413 2.5-1.235.598-.826.897-1.914.897-3.265zM78.433 35.45c0 2.177-.59 3.896-1.766 5.16-1.053 1.122-2.36 1.685-3.922 1.685-1.686 0-2.896-.605-3.632-1.816h-.053v6.74h-2.842V33.42c0-1.367-.036-2.77-.105-4.21h2.5l.158 2.028h.055c.946-1.53 2.386-2.293 4.316-2.293 1.51 0 2.77.598 3.78 1.79 1.007 1.195 1.513 2.765 1.513 4.714zm-2.897.105c0-1.244-.28-2.27-.844-3.08-.614-.842-1.438-1.264-2.474-1.264-.703 0-1.34.235-1.91.698-.57.467-.94 1.076-1.116 1.832-.087.352-.133.64-.133.865v2.135c0 .93.284 1.715.853 2.355.57.64 1.312.96 2.227.96 1.07 0 1.903-.413 2.5-1.235.597-.826.896-1.914.896-3.265zM94.886 37.03c0 1.51-.523 2.737-1.576 3.685-1.156 1.035-2.766 1.553-4.833 1.553-1.91 0-3.44-.367-4.6-1.105l.66-2.37c1.247.757 2.616 1.136 4.108 1.136 1.07 0 1.904-.243 2.503-.728.597-.482.894-1.13.894-1.938 0-.72-.245-1.328-.737-1.82-.49-.492-1.308-.95-2.448-1.37-3.106-1.16-4.658-2.856-4.658-5.09 0-1.458.543-2.653 1.632-3.585 1.086-.933 2.533-1.397 4.344-1.397 1.614 0 2.955.28 4.025.842l-.708 2.318c-1-.545-2.132-.816-3.397-.816-1 0-1.78.246-2.34.736-.474.44-.71.975-.71 1.607 0 .7.27 1.28.812 1.738.475.42 1.334.877 2.582 1.37 1.526.614 2.646 1.333 3.368 2.155.718.822 1.078 1.85 1.078 3.076zM104.284 31.344h-3.133v6.213c0 1.578.553 2.367 1.66 2.367.507 0 .93-.043 1.263-.13l.078 2.157c-.56.212-1.296.317-2.21.317-1.123 0-2-.344-2.633-1.027-.632-.686-.948-1.834-.948-3.45v-6.448H96.49V29.21h1.867v-2.345l2.79-.842v3.186h3.134v2.134zM118.422 35.502c0 1.967-.562 3.582-1.687 4.844-1.177 1.3-2.74 1.95-4.688 1.95-1.877 0-3.372-.624-4.486-1.868-1.114-1.246-1.67-2.818-1.67-4.713 0-1.982.573-3.607 1.723-4.87 1.147-1.265 2.696-1.895 4.645-1.895 1.878 0 3.388.623 4.528 1.87 1.092 1.21 1.636 2.768 1.636 4.682zm-2.95.092c0-1.18-.252-2.19-.762-3.035-.597-1.022-1.45-1.53-2.553-1.53-1.142 0-2.012.51-2.606 1.53-.51.845-.762 1.872-.762 3.09 0 1.18.25 2.19.763 3.032.615 1.02 1.474 1.53 2.583 1.53 1.085 0 1.937-.52 2.552-1.556.523-.86.787-1.883.787-3.062zM127.66 31.71c-.28-.052-.58-.077-.895-.077-1 0-1.773.377-2.317 1.133-.475.666-.71 1.51-.71 2.525v6.716h-2.843l.026-8.766c0-1.475-.034-2.818-.105-4.027h2.477l.104 2.447h.078c.3-.842.773-1.52 1.422-2.027.633-.457 1.318-.686 2.055-.686.265 0 .5.02.712.053v2.71zM140.375 35.002c0 .51-.034.94-.104 1.29h-8.527c.034 1.265.445 2.23 1.237 2.897.72.595 1.648.894 2.79.894 1.262 0 2.415-.2 3.45-.605l.445 1.972c-1.21.527-2.64.79-4.29.79-1.983 0-3.54-.583-4.675-1.75-1.13-1.165-1.696-2.733-1.696-4.698 0-1.928.527-3.535 1.582-4.816 1.104-1.37 2.595-2.053 4.473-2.053 1.843 0 3.24.684 4.187 2.053.75 1.084 1.128 2.428 1.128 4.024zm-2.71-.736c.018-.844-.168-1.57-.553-2.186-.492-.79-1.248-1.186-2.266-1.186-.93 0-1.686.385-2.264 1.158-.473.615-.754 1.354-.84 2.21h5.92v.004z"></path> </g> <g fill="#FFF"> <path d="M42.9 13.345c0 1.57-.47 2.75-1.41 3.544-.87.73-2.108 1.098-3.71 1.098-.796 0-1.476-.035-2.045-.104V9.31c.743-.12 1.543-.18 2.407-.18 1.527 0 2.677.33 3.453.995.87.75 1.305 1.823 1.305 3.22zm-1.474.04c0-1.02-.27-1.798-.808-2.342-.54-.543-1.325-.815-2.36-.815-.44 0-.815.03-1.126.09v6.52c.172.026.486.038.944.038 1.07 0 1.895-.297 2.476-.893.58-.593.874-1.46.874-2.6zM50.712 14.716c0 .967-.275 1.758-.828 2.38-.578.638-1.346.957-2.303.957-.92 0-1.656-.306-2.204-.92-.547-.61-.82-1.383-.82-2.313 0-.974.28-1.772.846-2.393.565-.62 1.325-.93 2.283-.93.923 0 1.664.305 2.226.917.534.595.802 1.363.802 2.302zm-1.45.045c0-.58-.124-1.076-.374-1.49-.293-.502-.71-.753-1.253-.753-.562 0-.988.25-1.28.752-.252.414-.376.92-.376 1.516 0 .58.125 1.078.374 1.492.303.5.724.752 1.268.752.534 0 .952-.254 1.253-.765.26-.422.388-.924.388-1.504zM61.187 11.625L59.22 17.91h-1.28l-.814-2.73c-.207-.68-.375-1.357-.506-2.03h-.025c-.12.69-.29 1.367-.506 2.03l-.866 2.73H53.93l-1.85-6.285h1.437l.71 2.988c.172.707.313 1.38.427 2.018h.025c.103-.524.274-1.193.518-2.003l.892-3h1.14l.854 2.936c.206.716.374 1.406.504 2.07h.038c.095-.646.237-1.336.427-2.07l.763-2.936h1.372v-.002zM68.43 17.91h-1.396v-3.6c0-1.11-.42-1.664-1.267-1.664-.414 0-.75.152-1.01.458-.257.305-.388.665-.388 1.077v3.73H62.97v-4.488c0-.552-.018-1.15-.05-1.8h1.228l.065.984h.038c.163-.305.406-.557.725-.76.38-.233.803-.352 1.267-.352.587 0 1.074.19 1.462.57.484.465.725 1.16.725 2.082v3.765zM72.284 17.91h-1.396V8.743h1.396v9.17zM80.51 14.716c0 .967-.275 1.758-.827 2.38-.578.638-1.347.957-2.303.957-.924 0-1.658-.306-2.205-.92-.547-.61-.82-1.383-.82-2.313 0-.974.28-1.772.846-2.393.567-.62 1.327-.93 2.282-.93.925 0 1.664.305 2.23.917.53.595.8 1.363.8 2.302zm-1.45.045c0-.58-.125-1.076-.375-1.49-.29-.502-.71-.753-1.25-.753-.564 0-.99.25-1.283.752-.25.414-.374.92-.374 1.516 0 .58.125 1.078.374 1.492.303.5.725.752 1.268.752.534 0 .95-.254 1.253-.765.26-.422.387-.924.387-1.504zM87.273 17.91h-1.255l-.104-.723h-.038c-.43.578-1.04.867-1.837.867-.594 0-1.074-.19-1.435-.57-.328-.344-.492-.77-.492-1.28 0-.768.32-1.353.965-1.76.642-.404 1.546-.603 2.71-.593v-.117c0-.828-.434-1.24-1.307-1.24-.618 0-1.165.155-1.637.464l-.284-.917c.583-.362 1.304-.543 2.155-.543 1.644 0 2.467.867 2.467 2.6v2.314c0 .63.032 1.13.09 1.5zm-1.45-2.16v-.97c-1.542-.025-2.312.397-2.312 1.268 0 .328.09.573.27.737s.408.246.682.246c.308 0 .594-.096.854-.29.263-.194.424-.44.484-.744.015-.068.023-.15.023-.245zM95.214 17.91h-1.24l-.064-1.01h-.04c-.396.77-1.07 1.153-2.02 1.153-.757 0-1.387-.298-1.887-.892-.5-.594-.75-1.366-.75-2.314 0-1.017.27-1.84.814-2.47.526-.587 1.172-.88 1.94-.88.844 0 1.434.284 1.77.854h.027V8.742h1.398v7.476c.002.612.018 1.176.052 1.693zm-1.448-2.65v-1.047c0-.182-.013-.328-.04-.44-.077-.336-.246-.62-.504-.847-.26-.228-.573-.342-.936-.342-.52 0-.93.206-1.23.62-.296.416-.447.945-.447 1.592 0 .62.143 1.125.43 1.513.3.413.71.62 1.22.62.46 0 .826-.173 1.105-.518.268-.32.4-.704.4-1.152zM107.164 14.716c0 .967-.276 1.758-.828 2.38-.578.638-1.344.957-2.302.957-.922 0-1.656-.306-2.206-.92-.547-.61-.82-1.383-.82-2.313 0-.974.28-1.772.847-2.393.564-.62 1.325-.93 2.283-.93.922 0 1.664.305 2.225.917.533.595.8 1.363.8 2.302zm-1.448.045c0-.58-.125-1.076-.375-1.49-.293-.502-.71-.753-1.254-.753-.56 0-.985.25-1.28.752-.25.414-.375.92-.375 1.516 0 .58.126 1.078.375 1.492.304.5.724.752 1.27.752.532 0 .952-.254 1.254-.765.256-.422.386-.924.386-1.504zM114.677 17.91h-1.396v-3.6c0-1.11-.42-1.664-1.268-1.664-.414 0-.748.152-1.008.458-.258.305-.388.665-.388 1.077v3.73h-1.398v-4.488c0-.552-.016-1.15-.05-1.8h1.227l.065.984h.04c.163-.305.405-.557.723-.76.38-.233.803-.352 1.27-.352.585 0 1.072.19 1.46.57.484.465.724 1.16.724 2.082v3.765zM124.08 12.672h-1.537v3.054c0 .776.272 1.164.813 1.164.252 0 .46-.02.623-.065l.035 1.06c-.276.104-.638.156-1.085.156-.552 0-.98-.167-1.293-.503-.31-.336-.466-.9-.466-1.695v-3.17h-.918v-1.046h.92v-1.15l1.37-.415v1.565h1.538v1.047zM131.48 17.91h-1.4v-3.573c0-1.126-.42-1.69-1.265-1.69-.648 0-1.092.326-1.334.98-.04.137-.063.305-.063.502v3.78h-1.396V8.74h1.397v3.788h.025c.44-.69 1.07-1.033 1.89-1.033.577 0 1.056.19 1.437.57.473.472.71 1.177.71 2.107v3.737zM139.11 14.47c0 .252-.02.463-.053.635h-4.19c.02.62.22 1.094.606 1.422.354.293.812.44 1.37.44.622 0 1.188-.1 1.695-.297l.22.97c-.596.26-1.298.39-2.11.39-.973 0-1.74-.288-2.294-.86-.558-.574-.834-1.343-.834-2.31 0-.947.258-1.737.776-2.366.542-.672 1.273-1.008 2.198-1.008.903 0 1.59.336 2.055 1.008.375.533.56 1.193.56 1.977zm-1.334-.36c.01-.416-.08-.773-.27-1.074-.243-.388-.612-.583-1.112-.583-.456 0-.828.19-1.112.57-.23.303-.37.664-.414 1.086h2.908z"></path> </g> </svg>